# xmcd
#
# Track frame offsets: 
#        150
#        23792
#        38700
#        54700
#        67617
#        85492
#        102160
#        119105
#        132885
#
# Disc length: 1912 seconds
#
# Revision: 7
# Processed by: cddbd v1.5.2PL0 Copyright (c) Steve Scherf et al.
# Submitted via: ExactAudioCopy v0.95b4
#
DISCID=75077609
DTITLE=Jimi Hendrix - The Complete PPX Studio Recordings - Vol. 2 - Fl
DTITLE=ashing
DYEAR=2000
DGENRE=Progressive Rock
TTITLE0=Love, Love
TTITLE1=Day Tripper
TTITLE2=Gloomy Monday
TTITLE3=Fool For Your Baby
TTITLE4=Don't Accuse Me
TTITLE5=Hornet's Nest
TTITLE6=Flashing
TTITLE7=Oddball
TTITLE8=Happy Birthday
EXTD=(p) and (c) SPV Records 088-29802\nOriginal Producer: Ed Chalpin, P
EXTD=PX Studios, New York YEAR: 1996
EXTT0=
EXTT1=
EXTT2=
EXTT3=
EXTT4=
EXTT5=
EXTT6=
EXTT7=
EXTT8=
PLAYORDER=
